<svg id="Capa_1" enable-background="new 0 0 505.108 505.108" height="512" viewBox="0 0 505.108 505.108" width="512" xmlns="http://www.w3.org/2000/svg"><g><path d="m334.532 9.584c-40.019 2.806-80.289 4.191-120.405 4.676-49.356 1.383-102.71-2.745-152.108 1.747-47.983.433-61.456 48.997-58.264 89.032 2.568 13.475-1.63 72.193 2.106 104.084-3.577 2.42-6.039 6.462-5.852 12.14 2.05 71.667-3.654 148.293 17.48 218.287 19.841 39.476 70.466 27.077 106.097 27.592 50.878 2.281 102.962.793 153.893-.055 9.727.158 56.409 1.92 31.578-13.998-73.379-.52-147.445-5.519-220.647-5.93-20.104-.074-47.713-.46-51.727-24.297-8.268-45.682-8.832-92.131-7.958-138.601.381-21.027 1.021-42.196 1.284-63.498.003-5.72-2.683-9.708-6.439-12.004 1.538-28.409-4.291-75.784-2.163-80.338-.099-2.887-.187-5.717-.26-8.493 7.65-.289 17.015-.534 23.603-.688 58.112-1.389 117.666-.743 175.786 1.059 10.829 1.468 198.377 12.97 255.276.324-.598 7.53-1.645 15.647-3.167 24.406-.075 22.418.317 48.606.64 71.004 2.681 11.908-5.702 132.388 20.355 91.448 4.359-69.449 6.686-139.536 11.393-208.879 3.18-100.106-96.644-101.537-170.501-89.018zm21.503 87.521c-14.771-4.265-26.264-17.557-18.055-35.437 12.562-23.801 49.16-20.599 55.866 1.104-.885 5.18-1.098 10.844-.512 16.975-.053.171-.097.338-.153.51-3.21 9.533-10.234 15.017-18.322 17.199-6.272-.137-12.547-.255-18.824-.351zm114.123-27.658c-.125 3.7-.875 7.733-2.407 12.096-9.57 19.113-43.131 16.686-48.715-4.267-6.192-25.421 8.829-36.631 24.166-36.004 12.26 5.841 21.398 14.879 26.956 28.175zm-64.991-30.838c-1.225-2.26-2.615-4.341-4.147-6.246 3.44.161 6.777.405 10.011.74-2.091 1.641-4.057 3.475-5.864 5.506zm-384.215 64.474c.404-48.727 11.47-75.526 77.22-69.592 52.7.829 109.912 2.931 162.552 2.772 19.957-.183 40.439.123 60.653-.343-7.8 9.58-12.033 22.442-9.807 38.113 1.064 9.075 4.049 16.624 8.342 22.725-99.752-.411-199.86 3.451-298.96 6.325z"/><path d="m345.983 287.429c-12.5-5.934-72.946-33.259-73.641-10.366 7.194 25.16 11.974 52.586 20.249 77.471 7.581 17.808 25.582 30.376 37.586 45.46 24.862 26.453 48.833 53.689 72.948 80.772 38.485 44.367 107.211 9.897 87.054-47.447-28.429-62.584-86.776-110.269-144.196-145.89zm-29.724 69.55c-14.407-7.713-17.049-52.069-22.908-69.022 45.034 8.134 113.047 60.212 148.843 111.869-.45.753-.895 1.488-1.342 2.185-11.08 13.172-25.768 22.528-39.121 33.205-26.65-28.031-55.402-53.945-85.472-78.237zm104.925 99.546c2.206-2.71 4.195-5.924 5.811-9.648 8.225-10.328 16.33-20.937 25.584-30.408 6.883 12.459 11.504 24.61 13.036 35.804-5.181 30.611-27.859 19.495-44.431 4.252z"/></g></svg>